<svg width="200" height="350" viewBox="0 0 200 350" fill="none" xmlns="http://www.w3.org/2000/svg">
<rect x="2.5" y="2.5" width="195" height="345" fill="url(#paint0_linear_1001_15)" stroke="white" stroke-width="5"/>
<rect x="16.5" y="16.5" width="167" height="317" stroke="white" stroke-width="3" stroke-dasharray="10 10"/>
<g filter="url(#filter0_d_1001_15)">
<path d="M138 178C138 198.987 120.987 216 100 216C89 192.5 66 202 62 178C62 157.013 79.0132 140 100 140C106 170.5 138 157.013 138 178Z" fill="#FFF8E7"/>
<path d="M99 175H116.364L121 177L116.364 179H99V175Z" fill="#514F49"/>
<path d="M100 175.723C100 175.723 108.95 172.014 114 168.5C118.873 165.109 117.5 166 117.5 166L120.5 164.5L120 167.5C120 167.5 120.706 167.13 116 170.5C110.8 174.223 101.135 177.37 101.135 177.37L100 175.723Z" fill="#514F49"/>
<path d="M105 177C105 179.761 102.761 182 100 182C97.2386 182 95 179.761 95 177C95 174.239 97.2386 172 100 172C102.761 172 105 174.239 105 177Z" fill="#514F49"/>
<path d="M100 140L101.704 146L99 152.414L95 151L100 140Z" fill="#514F49"/>
<path d="M100 140L101.704 146L99 152.414L95 151L100 140Z" fill="#514F49"/>
<path d="M100 208L102.5 210L100 216L98.718 213.5L99.5 210.5L100 208Z" fill="#514F49"/>
<path d="M100 208L102.5 210L100 216L98.718 213.5L99.5 210.5L100 208Z" fill="#514F49"/>
<path d="M137.5 177.5V179.5H130.5V177.5H137.5Z" fill="#514F49"/>
<path d="M137.5 177.5V179.5H130.5V177.5H137.5Z" fill="#514F49"/>
<path d="M69.5 177.5V179.5H62.5L62.5 177.5H69.5Z" fill="#514F49"/>
<path d="M69.5 177.5V179.5H62.5L62.5 177.5H69.5Z" fill="#514F49"/>
<path d="M127.224 204.309L125.809 205.724L122.981 202.895L124.395 201.481L127.224 204.309Z" fill="#514F49"/>
<path d="M127.224 204.309L125.809 205.724L122.981 202.895L124.395 201.481L127.224 204.309Z" fill="#514F49"/>
<path d="M77.2422 153.828L75.828 155.243L72.9995 152.414L74.4137 151L77.2422 153.828Z" fill="#514F49"/>
<path d="M77.2422 153.828L75.828 155.243L72.9995 152.414L74.4137 151L77.2422 153.828Z" fill="#514F49"/>
<path d="M82.5 199.127L80.5 198.176L83 195.5L85 196L82.5 199.127Z" fill="#514F49"/>
<path d="M82.5 199.127L80.5 198.176L83 195.5L85 196L82.5 199.127Z" fill="#514F49"/>
<path d="M116 164L114 163L116.364 160.683L118.345 161.5L116 164Z" fill="#514F49"/>
<path d="M116 164L114 163L116.364 160.683L118.345 161.5L116 164Z" fill="#514F49"/>
</g>
<path d="M44.028 125.132C42.66 125.132 41.364 124.892 40.14 124.412C38.916 123.932 37.92 123.2 37.152 122.216C36.408 121.256 36.036 120.044 36.036 118.58C36.036 117.308 36.3 116.312 36.828 115.592C37.38 114.872 38.064 114.368 38.88 114.08C39.696 113.792 40.488 113.648 41.256 113.648C40.512 114.416 39.948 115.232 39.564 116.096C39.204 116.96 39.024 117.788 39.024 118.58C39.024 119.42 39.228 120.212 39.636 120.956C40.044 121.676 40.668 122.264 41.508 122.72C42.348 123.176 43.392 123.404 44.64 123.404C45.72 123.404 46.764 123.212 47.772 122.828C48.804 122.468 49.644 121.916 50.292 121.172C50.964 120.428 51.3 119.504 51.3 118.4C51.3 117.392 51.024 116.528 50.472 115.808C49.92 115.088 49.212 114.452 48.348 113.9C47.484 113.324 46.56 112.784 45.576 112.28C44.616 111.752 43.704 111.188 42.84 110.588C41.976 109.988 41.268 109.304 40.716 108.536C40.164 107.744 39.888 106.796 39.888 105.692C39.888 104.708 40.128 103.664 40.608 102.56C41.112 101.432 41.808 100.376 42.696 99.392C43.608 98.408 44.7 97.616 45.972 97.016C47.268 96.392 48.708 96.08 50.292 96.08C51.852 96.08 52.944 96.428 53.568 97.124C54.216 97.82 54.54 98.708 54.54 99.788C54.54 100.676 54.384 101.624 54.072 102.632C53.784 103.64 53.412 104.6 52.956 105.512C52.524 106.4 52.104 107.168 51.696 107.816C51.192 107.696 50.82 107.492 50.58 107.204C50.364 106.916 50.256 106.544 50.256 106.088C50.256 105.584 50.352 105.02 50.544 104.396C50.76 103.748 51 103.088 51.264 102.416C51.552 101.72 51.804 101.06 52.02 100.436C52.236 99.788 52.344 99.212 52.344 98.708C52.344 98.252 52.212 97.904 51.948 97.664C51.684 97.4 51.156 97.268 50.364 97.268C49.236 97.268 48.192 97.532 47.232 98.06C46.272 98.564 45.432 99.212 44.712 100.004C44.016 100.796 43.464 101.624 43.056 102.488C42.672 103.352 42.48 104.144 42.48 104.864C42.48 105.728 42.744 106.472 43.272 107.096C43.824 107.72 44.52 108.284 45.36 108.788C46.224 109.292 47.136 109.808 48.096 110.336C49.056 110.84 49.956 111.404 50.796 112.028C51.66 112.652 52.356 113.396 52.884 114.26C53.436 115.1 53.712 116.144 53.712 117.392C53.712 118.64 53.436 119.744 52.884 120.704C52.332 121.664 51.576 122.468 50.616 123.116C49.68 123.764 48.636 124.256 47.484 124.592C46.332 124.952 45.18 125.132 44.028 125.132ZM53.9159 132.08C53.7239 132.08 53.5319 132.008 53.3399 131.864C53.1239 131.72 52.9439 131.564 52.7999 131.396C52.6559 131.228 52.5839 131.108 52.5839 131.036C53.0879 129.476 53.5319 128.108 53.9159 126.932C54.2999 125.78 54.6479 124.664 54.9599 123.584C55.2479 122.504 55.5239 121.34 55.7879 120.092C56.0519 118.82 56.3159 117.332 56.5799 115.628C56.8439 113.9 57.1199 111.8 57.4079 109.328C57.4559 109.064 57.5159 108.872 57.5879 108.752C57.6599 108.632 57.8759 108.572 58.2359 108.572C58.9319 108.572 59.4359 108.764 59.7479 109.148C60.0599 109.532 60.2159 109.952 60.2159 110.408C60.2159 110.672 60.1559 111.152 60.0359 111.848C59.9399 112.52 59.7959 113.336 59.6039 114.296C60.0359 113.552 60.5519 112.844 61.1519 112.172C61.7519 111.476 62.4239 110.9 63.1679 110.444C63.9119 109.988 64.7159 109.76 65.5799 109.76C66.7319 109.76 67.6679 110.156 68.3879 110.948C69.1319 111.716 69.5039 112.736 69.5039 114.008C69.5039 114.944 69.2879 115.94 68.8559 116.996C68.4479 118.028 67.8599 119.012 67.0919 119.948C66.3479 120.86 65.4359 121.604 64.3559 122.18C63.2999 122.78 62.1359 123.08 60.8639 123.08C60.1439 123.08 59.5679 122.984 59.1359 122.792C58.7039 122.624 58.4879 122.444 58.4879 122.252C58.4879 122.108 58.5719 122.024 58.7399 122C58.9319 121.952 59.1359 121.928 59.3519 121.928C60.4319 121.928 61.4159 121.7 62.3039 121.244C63.2159 120.764 64.0079 120.152 64.6799 119.408C65.3759 118.664 65.9039 117.86 66.2639 116.996C66.6479 116.132 66.8399 115.268 66.8399 114.404C66.8399 113.684 66.6719 113.06 66.3359 112.532C66.0239 111.98 65.5199 111.704 64.8239 111.704C64.1999 111.704 63.5759 111.908 62.9519 112.316C62.3519 112.7 61.7879 113.192 61.2599 113.792C60.7319 114.368 60.2639 114.98 59.8559 115.628C59.4479 116.276 59.1359 116.852 58.9199 117.356C58.4639 119.012 58.0319 120.632 57.6239 122.216C57.2399 123.824 56.8679 125.3 56.5079 126.644C56.1719 128.012 55.8359 129.152 55.4999 130.064C55.1399 130.976 54.7919 131.576 54.4559 131.864C54.2879 132.008 54.1079 132.08 53.9159 132.08ZM86.9009 123.764C85.4369 123.764 84.3209 123.356 83.5529 122.54C82.7849 121.724 82.3649 120.74 82.2929 119.588C81.2609 120.836 80.0729 121.808 78.7289 122.504C77.4089 123.224 76.0769 123.584 74.7329 123.584C73.1969 123.584 72.0329 123.176 71.2409 122.36C70.4489 121.544 70.0529 120.524 70.0529 119.3C70.0529 118.244 70.3169 117.128 70.8449 115.952C71.3969 114.752 72.1289 113.636 73.0409 112.604C73.9529 111.548 74.9489 110.696 76.0289 110.048C77.1329 109.376 78.2489 109.04 79.3769 109.04C79.9769 109.04 80.5289 109.196 81.0329 109.508C81.5609 109.796 81.8249 110.408 81.8249 111.344C81.8249 112.256 81.5489 113.108 80.9969 113.9C80.4689 114.668 79.7609 115.364 78.8729 115.988C78.0089 116.588 77.0369 117.08 75.9569 117.464C74.9009 117.848 73.8449 118.1 72.7889 118.22C72.7649 118.364 72.7409 118.532 72.7169 118.724C72.6929 118.892 72.6809 119.072 72.6809 119.264C72.6809 119.696 72.7529 120.14 72.8969 120.596C73.0649 121.052 73.3409 121.436 73.7249 121.748C74.1329 122.06 74.7329 122.216 75.5249 122.216C76.7969 122.216 78.0449 121.796 79.2689 120.956C80.4929 120.092 81.5609 119.024 82.4729 117.752C82.6889 116.768 83.0729 115.796 83.6249 114.836C84.1769 113.852 84.8489 112.964 85.6409 112.172C86.4329 111.38 87.2969 110.744 88.2329 110.264C89.1689 109.76 90.1289 109.508 91.1129 109.508C91.7129 109.508 92.2649 109.664 92.7689 109.976C93.2969 110.288 93.5609 110.912 93.5609 111.848C93.5609 113.048 93.1409 114.104 92.3009 115.016C91.4849 115.928 90.4289 116.672 89.1329 117.248C87.8369 117.8 86.4689 118.16 85.0289 118.328C85.0049 118.472 84.9809 118.628 84.9569 118.796C84.9329 118.964 84.9209 119.144 84.9209 119.336C84.9209 119.768 84.9929 120.224 85.1369 120.704C85.2809 121.184 85.5449 121.592 85.9289 121.928C86.3129 122.24 86.8889 122.396 87.6569 122.396C88.6889 122.396 89.7209 122.096 90.7529 121.496C91.8089 120.872 92.7809 120.08 93.6689 119.12C94.5569 118.136 95.3009 117.068 95.9009 115.916L96.4409 116.384C95.7929 117.824 94.9529 119.096 93.9209 120.2C92.9129 121.304 91.8089 122.168 90.6089 122.792C89.4089 123.44 88.1729 123.764 86.9009 123.764ZM73.1129 117.212C73.7849 116.996 74.5049 116.684 75.2729 116.276C76.0409 115.868 76.7729 115.4 77.4689 114.872C78.1889 114.32 78.7769 113.732 79.2329 113.108C79.6889 112.484 79.9169 111.836 79.9169 111.164C79.9169 110.948 79.8689 110.78 79.7729 110.66C79.7009 110.54 79.5209 110.48 79.2329 110.48C78.7049 110.48 78.1289 110.684 77.5049 111.092C76.9049 111.476 76.3169 112.004 75.7409 112.676C75.1649 113.324 74.6489 114.044 74.1929 114.836C73.7369 115.628 73.3769 116.42 73.1129 117.212ZM85.3529 117.212C85.9769 116.996 86.6489 116.72 87.3689 116.384C88.1129 116.048 88.8089 115.664 89.4569 115.232C90.1049 114.776 90.6329 114.26 91.0409 113.684C91.4729 113.108 91.6889 112.472 91.6889 111.776C91.6889 111.512 91.6409 111.32 91.5449 111.2C91.4489 111.056 91.2569 110.984 90.9689 110.984C90.2729 110.984 89.5529 111.284 88.8089 111.884C88.0649 112.484 87.3809 113.264 86.7569 114.224C86.1569 115.16 85.6889 116.156 85.3529 117.212ZM97.3682 123.08C96.9122 123.08 96.4562 122.972 96.0002 122.756C95.5682 122.54 95.1962 122.192 94.8842 121.712C94.5722 121.232 94.4162 120.632 94.4162 119.912C94.4162 119.12 94.6082 118.232 94.9922 117.248C95.3762 116.264 95.8922 115.28 96.5402 114.296C97.2122 113.312 97.9802 112.412 98.8442 111.596C99.7082 110.78 100.62 110.12 101.58 109.616C102.54 109.112 103.5 108.86 104.46 108.86C104.988 108.86 105.396 108.956 105.684 109.148C105.996 109.316 106.152 109.604 106.152 110.012C106.152 110.132 106.128 110.252 106.08 110.372C106.056 110.492 105.984 110.612 105.864 110.732C105.744 110.564 105.564 110.456 105.324 110.408C105.108 110.336 104.856 110.3 104.568 110.3C103.776 110.3 103.02 110.528 102.3 110.984C101.58 111.416 100.908 111.992 100.284 112.712C99.6842 113.432 99.1562 114.212 98.7002 115.052C98.2682 115.868 97.9322 116.672 97.6922 117.464C97.4522 118.232 97.3322 118.892 97.3322 119.444C97.3322 119.924 97.4282 120.308 97.6202 120.596C97.8362 120.884 98.1362 121.028 98.5202 121.028C99.1682 121.028 99.9482 120.644 100.86 119.876C101.772 119.084 102.696 117.968 103.632 116.528C104.592 115.064 105.456 113.336 106.224 111.344C106.752 109.976 107.304 108.584 107.88 107.168C108.456 105.728 109.032 104.348 109.608 103.028C110.184 101.684 110.748 100.496 111.3 99.464C111.852 98.432 112.38 97.616 112.884 97.016C113.388 96.392 113.856 96.08 114.288 96.08C114.528 96.08 114.732 96.176 114.9 96.368C115.092 96.56 115.188 96.8 115.188 97.088C115.188 97.472 114.984 98.12 114.576 99.032C114.192 99.944 113.688 101.036 113.064 102.308C112.44 103.556 111.768 104.924 111.048 106.412C110.352 107.876 109.692 109.376 109.068 110.912C108.468 112.448 107.964 113.948 107.556 115.412C107.172 116.876 106.98 118.244 106.98 119.516C106.98 120.116 107.028 120.548 107.124 120.812C107.22 121.052 107.424 121.172 107.736 121.172C108.24 121.172 108.816 120.968 109.464 120.56C110.136 120.128 110.808 119.516 111.48 118.724C112.152 117.908 112.752 116.948 113.28 115.844L113.892 116.312C113.388 117.608 112.728 118.76 111.912 119.768C111.12 120.752 110.256 121.52 109.32 122.072C108.408 122.648 107.508 122.936 106.62 122.936C105.684 122.936 105.024 122.624 104.64 122C104.28 121.4 104.1 120.716 104.1 119.948C104.1 119.564 104.136 119.132 104.208 118.652C104.28 118.148 104.376 117.632 104.496 117.104C103.752 118.256 102.96 119.288 102.12 120.2C101.28 121.088 100.452 121.784 99.6362 122.288C98.8442 122.816 98.0882 123.08 97.3682 123.08ZM114.121 132.08C113.521 132.08 112.969 131.9 112.465 131.54C111.985 131.18 111.745 130.628 111.745 129.884C111.745 129.116 111.961 128.42 112.393 127.796C112.825 127.196 113.389 126.644 114.085 126.14C114.781 125.636 115.537 125.168 116.353 124.736C117.193 124.304 118.021 123.884 118.837 123.476C119.125 122.732 119.437 121.82 119.773 120.74C120.109 119.66 120.409 118.592 120.673 117.536C119.929 118.64 119.125 119.612 118.261 120.452C117.421 121.268 116.485 121.676 115.453 121.676C115.021 121.676 114.565 121.592 114.085 121.424C113.629 121.232 113.245 120.92 112.933 120.488C112.621 120.032 112.465 119.444 112.465 118.724C112.465 118.076 112.573 117.308 112.789 116.42C113.029 115.532 113.317 114.668 113.653 113.828C114.013 112.988 114.373 112.292 114.733 111.74C115.117 111.164 115.453 110.876 115.741 110.876C115.861 110.876 116.053 110.924 116.317 111.02C116.581 111.116 116.833 111.248 117.073 111.416C117.337 111.584 117.493 111.764 117.541 111.956C117.325 112.244 117.085 112.664 116.821 113.216C116.557 113.768 116.305 114.38 116.065 115.052C115.825 115.724 115.621 116.384 115.453 117.032C115.309 117.68 115.237 118.232 115.237 118.688C115.237 119.072 115.309 119.396 115.453 119.66C115.621 119.924 115.921 120.056 116.353 120.056C116.857 120.056 117.385 119.84 117.937 119.408C118.513 118.976 119.077 118.424 119.629 117.752C120.181 117.056 120.673 116.348 121.105 115.628C121.177 115.412 121.237 115.148 121.285 114.836C121.333 114.5 121.405 114.152 121.501 113.792C121.597 113.408 121.789 113.036 122.077 112.676C122.389 112.292 122.821 112.1 123.373 112.1C123.541 112.1 123.697 112.112 123.841 112.136C124.009 112.16 124.201 112.196 124.417 112.244C124.417 112.604 124.285 113.312 124.021 114.368C123.781 115.4 123.457 116.612 123.049 118.004C122.641 119.372 122.173 120.752 121.645 122.144C122.701 121.736 123.769 121.052 124.849 120.092C125.929 119.108 126.805 117.764 127.477 116.06L128.053 116.492C127.693 117.692 127.141 118.736 126.397 119.624C125.677 120.488 124.861 121.232 123.949 121.856C123.037 122.456 122.125 122.96 121.213 123.368C120.565 124.928 119.869 126.368 119.125 127.688C118.381 129.032 117.589 130.1 116.749 130.892C115.933 131.684 115.057 132.08 114.121 132.08ZM113.833 130.82C114.265 130.82 114.889 130.34 115.705 129.38C116.545 128.42 117.397 126.908 118.261 124.844C117.421 125.276 116.605 125.744 115.813 126.248C115.021 126.776 114.361 127.328 113.833 127.904C113.305 128.48 113.041 129.104 113.041 129.776C113.041 129.992 113.101 130.22 113.221 130.46C113.341 130.7 113.545 130.82 113.833 130.82Z" fill="#514F49"/>
<path d="M85.852 255.132C85.156 255.132 84.508 254.94 83.908 254.556C83.332 254.196 83.044 253.728 83.044 253.152C83.044 252.864 83.092 252.54 83.188 252.18C83.308 251.82 83.416 251.484 83.512 251.172C84.256 248.868 84.952 246.72 85.6 244.728C86.272 242.712 86.932 240.78 87.58 238.932C88.252 237.06 88.96 235.188 89.704 233.316C90.448 231.444 91.276 229.488 92.188 227.448C91.276 227.616 90.484 227.856 89.812 228.168C89.164 228.48 88.624 228.756 88.192 228.996C87.784 229.236 87.496 229.356 87.328 229.356C87.208 229.356 87.04 229.284 86.824 229.14C86.608 228.972 86.416 228.792 86.248 228.6C86.104 228.408 86.032 228.24 86.032 228.096C86.68 227.808 87.448 227.508 88.336 227.196C89.224 226.884 90.184 226.62 91.216 226.404C92.248 226.188 93.28 226.08 94.312 226.08C95.416 226.08 96.544 226.236 97.696 226.548C98.848 226.836 99.904 227.28 100.864 227.88C101.824 228.456 102.604 229.176 103.204 230.04C103.804 230.904 104.104 231.924 104.104 233.1C104.104 234.372 103.816 235.464 103.24 236.376C102.664 237.264 101.908 238.02 100.972 238.644C100.036 239.268 99.028 239.772 97.948 240.156C96.868 240.54 95.788 240.828 94.708 241.02C93.628 241.212 92.656 241.344 91.792 241.416C90.952 241.488 90.328 241.524 89.92 241.524H89.668C88.972 243.924 88.3 246.312 87.652 248.688C87.004 251.064 86.404 253.212 85.852 255.132ZM89.92 240.588C91.264 240.492 92.608 240.264 93.952 239.904C95.296 239.544 96.52 239.04 97.624 238.392C98.728 237.744 99.616 236.928 100.288 235.944C100.96 234.96 101.296 233.82 101.296 232.524C101.296 231.276 100.984 230.268 100.36 229.5C99.736 228.732 98.92 228.156 97.912 227.772C96.928 227.388 95.872 227.184 94.744 227.16C93.88 228.864 93.04 230.892 92.224 233.244C91.432 235.596 90.664 238.044 89.92 240.588ZM103.616 253.044C102.608 253.044 101.852 252.732 101.348 252.108C100.844 251.508 100.592 250.764 100.592 249.876C100.592 249.324 100.688 248.628 100.88 247.788C101.072 246.948 101.336 246.072 101.672 245.16C102.032 244.224 102.44 243.348 102.896 242.532C103.352 241.716 103.832 241.056 104.336 240.552C104.864 240.024 105.38 239.76 105.884 239.76C106.148 239.76 106.376 239.844 106.568 240.012C106.784 240.18 106.892 240.42 106.892 240.732C106.892 241.044 106.7 241.512 106.316 242.136C105.956 242.76 105.524 243.492 105.02 244.332C104.516 245.148 104.072 246 103.688 246.888C103.328 247.776 103.148 248.628 103.148 249.444C103.148 250.236 103.292 250.764 103.58 251.028C103.868 251.292 104.288 251.424 104.84 251.424C105.656 251.424 106.532 251.016 107.468 250.2C108.428 249.384 109.424 247.956 110.456 245.916L110.924 246.42C110.132 248.532 109.076 250.164 107.756 251.316C106.46 252.468 105.08 253.044 103.616 253.044ZM107.9 236.7C107.468 236.7 107.072 236.592 106.712 236.376C106.376 236.16 106.208 235.836 106.208 235.404C106.208 234.828 106.508 234.348 107.108 233.964C107.732 233.556 108.368 233.352 109.016 233.352C109.424 233.352 109.76 233.448 110.024 233.64C110.288 233.832 110.42 234.156 110.42 234.612C110.42 235.116 110.156 235.596 109.628 236.052C109.1 236.484 108.524 236.7 107.9 236.7ZM113.594 254.016C112.37 254.016 111.362 253.62 110.57 252.828C109.778 252.06 109.382 250.884 109.382 249.3C109.382 248.124 109.61 246.972 110.066 245.844C110.546 244.716 111.17 243.696 111.938 242.784C112.706 241.872 113.558 241.152 114.494 240.624C115.43 240.096 116.378 239.832 117.338 239.832C118.346 239.832 119.054 240.096 119.462 240.624C119.894 241.152 120.11 241.74 120.11 242.388C120.11 243.084 119.942 243.732 119.606 244.332C119.294 244.932 118.862 245.232 118.31 245.232C117.854 245.232 117.482 245.016 117.194 244.584C117.482 244.416 117.758 244.08 118.022 243.576C118.286 243.072 118.418 242.496 118.418 241.848C118.418 241.608 118.37 241.428 118.274 241.308C118.178 241.188 117.986 241.128 117.698 241.128C117.074 241.128 116.426 241.404 115.754 241.956C115.106 242.508 114.494 243.228 113.918 244.116C113.342 244.98 112.874 245.892 112.514 246.852C112.154 247.812 111.974 248.712 111.974 249.552C111.974 250.248 112.154 250.884 112.514 251.46C112.874 252.036 113.558 252.324 114.566 252.324C115.502 252.324 116.45 252.06 117.41 251.532C118.394 251.004 119.318 250.26 120.182 249.3C121.046 248.34 121.73 247.2 122.234 245.88L122.882 246.456C122.306 247.896 121.514 249.192 120.506 250.344C119.522 251.472 118.418 252.36 117.194 253.008C115.994 253.68 114.794 254.016 113.594 254.016ZM123.388 253.692C122.62 253.692 121.96 253.428 121.408 252.9C120.832 252.396 120.544 251.628 120.544 250.596C120.544 249.732 120.736 248.808 121.12 247.824C121.504 246.84 122.032 245.868 122.704 244.908C123.376 243.948 124.144 243.072 125.008 242.28C125.872 241.488 126.784 240.852 127.744 240.372C128.728 239.892 129.7 239.652 130.66 239.652C131.668 239.652 132.508 239.916 133.18 240.444C133.876 240.948 134.224 241.62 134.224 242.46C134.224 243.108 134.02 243.564 133.612 243.828C133.204 244.092 132.7 244.176 132.1 244.08C132.148 243.888 132.184 243.684 132.208 243.468C132.256 243.228 132.28 243 132.28 242.784C132.28 242.28 132.172 241.836 131.956 241.452C131.74 241.068 131.32 240.876 130.696 240.876C130.024 240.876 129.34 241.104 128.644 241.56C127.948 242.016 127.276 242.616 126.628 243.36C125.98 244.104 125.404 244.92 124.9 245.808C124.396 246.696 124 247.572 123.712 248.436C123.424 249.3 123.28 250.068 123.28 250.74C123.28 251.556 123.58 251.964 124.18 251.964C124.732 251.964 125.332 251.7 125.98 251.172C126.652 250.644 127.324 249.972 127.996 249.156C128.692 248.34 129.352 247.512 129.976 246.672C130.6 245.808 131.14 245.052 131.596 244.404C131.692 244.284 131.776 244.224 131.848 244.224C131.968 244.248 132.16 244.308 132.424 244.404C132.688 244.476 132.928 244.584 133.144 244.728C133.36 244.872 133.468 245.064 133.468 245.304C133.468 245.544 133.36 245.856 133.144 246.24C132.928 246.6 132.688 247.008 132.424 247.464C132.16 247.92 131.92 248.376 131.704 248.832C131.488 249.288 131.38 249.732 131.38 250.164C131.38 250.476 131.464 250.788 131.632 251.1C131.824 251.388 132.124 251.532 132.532 251.532C133.132 251.532 133.948 251.1 134.98 250.236C136.036 249.348 137.104 247.908 138.184 245.916L138.76 246.492C138.208 247.788 137.524 248.928 136.708 249.912C135.916 250.896 135.076 251.664 134.188 252.216C133.3 252.792 132.412 253.08 131.524 253.08C130.564 253.08 129.856 252.78 129.4 252.18C128.944 251.604 128.692 250.968 128.644 250.272C128.644 250.2 128.644 250.128 128.644 250.056C128.668 249.96 128.68 249.876 128.68 249.804C127.696 251.028 126.796 251.976 125.98 252.648C125.164 253.344 124.3 253.692 123.388 253.692ZM141.439 253.836C140.263 253.836 139.315 253.584 138.595 253.08C137.899 252.6 137.407 251.988 137.119 251.244C136.807 250.5 136.651 249.744 136.651 248.976C136.651 248.28 136.747 247.74 136.939 247.356C137.131 246.972 137.371 246.684 137.659 246.492C137.947 246.3 138.211 246.156 138.451 246.06C138.715 245.964 138.895 245.868 138.991 245.772C139.639 245.076 140.275 244.308 140.899 243.468C141.523 242.628 142.063 241.716 142.519 240.732V240.336C142.519 239.4 142.675 238.74 142.987 238.356C143.299 237.972 143.659 237.78 144.067 237.78C144.331 237.78 144.523 237.852 144.643 237.996C144.763 238.116 144.823 238.26 144.823 238.428C144.823 238.548 144.787 238.716 144.715 238.932C144.667 239.148 144.643 239.436 144.643 239.796C144.643 240.54 144.811 241.38 145.147 242.316C145.483 243.228 145.819 244.2 146.155 245.232C146.491 246.264 146.659 247.32 146.659 248.4C146.659 248.712 146.647 249 146.623 249.264C146.599 249.504 146.551 249.744 146.479 249.984C147.271 249.816 148.027 249.42 148.747 248.796C149.467 248.148 150.163 247.188 150.835 245.916L151.231 246.24C150.775 247.608 150.103 248.688 149.215 249.48C148.351 250.248 147.355 250.716 146.227 250.884C145.843 251.892 145.219 252.636 144.355 253.116C143.491 253.596 142.519 253.836 141.439 253.836ZM141.295 252.36C141.703 252.36 142.123 252.24 142.555 252C142.987 251.784 143.335 251.4 143.599 250.848C142.591 250.632 141.691 250.248 140.899 249.696C140.131 249.12 139.531 248.532 139.099 247.932C138.715 248.004 138.523 248.364 138.523 249.012C138.523 249.828 138.751 250.596 139.207 251.316C139.687 252.012 140.383 252.36 141.295 252.36ZM143.851 249.912C143.899 249.72 143.923 249.504 143.923 249.264C143.947 249.024 143.959 248.808 143.959 248.616C143.935 247.512 143.791 246.432 143.527 245.376C143.263 244.296 143.011 243.216 142.771 242.136C142.291 242.952 141.751 243.792 141.151 244.656C140.575 245.496 140.035 246.18 139.531 246.708C139.891 247.404 140.443 248.052 141.187 248.652C141.955 249.252 142.843 249.672 143.851 249.912ZM153.99 253.836C152.814 253.836 151.866 253.584 151.146 253.08C150.45 252.6 149.958 251.988 149.67 251.244C149.358 250.5 149.202 249.744 149.202 248.976C149.202 248.28 149.298 247.74 149.49 247.356C149.682 246.972 149.922 246.684 150.21 246.492C150.498 246.3 150.762 246.156 151.002 246.06C151.266 245.964 151.446 245.868 151.542 245.772C152.19 245.076 152.826 244.308 153.45 243.468C154.074 242.628 154.614 241.716 155.07 240.732V240.336C155.07 239.4 155.226 238.74 155.538 238.356C155.85 237.972 156.21 237.78 156.618 237.78C156.882 237.78 157.074 237.852 157.194 237.996C157.314 238.116 157.374 238.26 157.374 238.428C157.374 238.548 157.338 238.716 157.266 238.932C157.218 239.148 157.194 239.436 157.194 239.796C157.194 240.54 157.362 241.38 157.698 242.316C158.034 243.228 158.37 244.2 158.706 245.232C159.042 246.264 159.21 247.32 159.21 248.4C159.21 248.712 159.198 249 159.174 249.264C159.15 249.504 159.102 249.744 159.03 249.984C159.822 249.816 160.578 249.42 161.298 248.796C162.018 248.148 162.714 247.188 163.386 245.916L163.782 246.24C163.326 247.608 162.654 248.688 161.766 249.48C160.902 250.248 159.906 250.716 158.778 250.884C158.394 251.892 157.77 252.636 156.906 253.116C156.042 253.596 155.07 253.836 153.99 253.836ZM153.846 252.36C154.254 252.36 154.674 252.24 155.106 252C155.538 251.784 155.886 251.4 156.15 250.848C155.142 250.632 154.242 250.248 153.45 249.696C152.682 249.12 152.082 248.532 151.65 247.932C151.266 248.004 151.074 248.364 151.074 249.012C151.074 249.828 151.302 250.596 151.758 251.316C152.238 252.012 152.934 252.36 153.846 252.36ZM156.402 249.912C156.45 249.72 156.474 249.504 156.474 249.264C156.498 249.024 156.51 248.808 156.51 248.616C156.486 247.512 156.342 246.432 156.078 245.376C155.814 244.296 155.562 243.216 155.322 242.136C154.842 242.952 154.302 243.792 153.702 244.656C153.126 245.496 152.586 246.18 152.082 246.708C152.442 247.404 152.994 248.052 153.738 248.652C154.506 249.252 155.394 249.672 156.402 249.912ZM164.885 253.152C163.829 253.152 163.097 252.804 162.689 252.108C162.281 251.436 162.077 250.668 162.077 249.804C162.077 249.036 162.197 248.256 162.437 247.464C162.677 246.672 163.001 245.928 163.409 245.232C163.817 244.536 164.273 243.972 164.777 243.54C165.281 243.108 165.797 242.892 166.325 242.892C166.469 242.892 166.637 242.928 166.829 243C167.045 243.048 167.201 243.12 167.297 243.216C167.033 243.504 166.745 243.912 166.433 244.44C166.145 244.968 165.869 245.544 165.605 246.168C165.365 246.768 165.161 247.38 164.993 248.004C164.849 248.604 164.777 249.156 164.777 249.66C164.777 250.212 164.873 250.644 165.065 250.956C165.257 251.268 165.569 251.424 166.001 251.424C166.481 251.424 167.045 251.172 167.693 250.668C168.365 250.14 169.001 249.504 169.601 248.76C168.857 248.112 168.305 247.368 167.945 246.528C167.609 245.664 167.441 244.692 167.441 243.612C167.441 243.012 167.573 242.376 167.837 241.704C168.101 241.032 168.509 240.468 169.061 240.012C169.613 239.556 170.333 239.328 171.221 239.328C172.229 239.328 172.925 239.616 173.309 240.192C173.717 240.744 173.921 241.416 173.921 242.208C173.921 243.096 173.681 244.104 173.201 245.232C172.745 246.336 172.193 247.392 171.545 248.4C171.881 248.592 172.253 248.688 172.661 248.688C173.021 248.688 173.453 248.604 173.957 248.436C174.461 248.268 174.941 247.992 175.397 247.608C175.877 247.2 176.261 246.672 176.549 246.024L177.125 246.456C176.621 247.632 175.925 248.496 175.037 249.048C174.173 249.576 173.333 249.84 172.517 249.84C172.205 249.84 171.893 249.816 171.581 249.768C171.269 249.696 170.981 249.6 170.717 249.48C169.901 250.488 168.977 251.352 167.945 252.072C166.937 252.792 165.917 253.152 164.885 253.152ZM170.429 247.68C171.029 246.84 171.521 245.94 171.905 244.98C172.313 243.996 172.517 243.096 172.517 242.28C172.517 241.68 172.421 241.248 172.229 240.984C172.061 240.696 171.821 240.552 171.509 240.552C171.029 240.552 170.549 240.888 170.069 241.56C169.589 242.208 169.349 243.036 169.349 244.044C169.349 244.62 169.433 245.268 169.601 245.988C169.793 246.684 170.069 247.248 170.429 247.68Z" fill="#514F49"/>
<defs>
<filter id="filter0_d_1001_15" x="58" y="140" width="84" height="84" filterUnits="userSpaceOnUse" color-interpolation-filters="sRGB">
<feFlood flood-opacity="0" result="BackgroundImageFix"/>
<feColorMatrix in="SourceAlpha" type="matrix" values="0 0 0 0 0 0 0 0 0 0 0 0 0 0 0 0 0 0 127 0" result="hardAlpha"/>
<feOffset dy="4"/>
<feGaussianBlur stdDeviation="2"/>
<feComposite in2="hardAlpha" operator="out"/>
<feColorMatrix type="matrix" values="0 0 0 0 0 0 0 0 0 0 0 0 0 0 0 0 0 0 0.25 0"/>
<feBlend mode="normal" in2="BackgroundImageFix" result="effect1_dropShadow_1001_15"/>
<feBlend mode="normal" in="SourceGraphic" in2="effect1_dropShadow_1001_15" result="shape"/>
</filter>
<linearGradient id="paint0_linear_1001_15" x1="100" y1="0" x2="100" y2="350" gradientUnits="userSpaceOnUse">
<stop stop-color="#F1CE75"/>
<stop offset="0.859375" stop-color="#EBA05A" stop-opacity="0.89"/>
</linearGradient>
</defs>
</svg>
